<!-- Generator: Adobe Illustrator 21.0.2, SVG Export Plug-In  -->
<svg version="1.1"
	 xmlns="http://www.w3.org/2000/svg" xmlns:xlink="http://www.w3.org/1999/xlink" xmlns:a="http://ns.adobe.com/AdobeSVGViewerExtensions/3.0/"
	 x="0px" y="0px" width="159.087px" height="19.775px" viewBox="0 0 159.087 19.775"
	 style="overflow:scroll;enable-background:new 0 0 159.087 19.775;" xml:space="preserve">
<style type="text/css">
	.st0{fill:#1A1449;}
</style>
<defs>
</defs>
<g>
	<path class="st0" d="M10.046,2.624c0,0.352-0.009,0.787-0.026,1.305S9.976,5.058,9.94,5.761C9.905,6.456,9.879,7.062,9.861,7.581
		S9.835,8.534,9.835,8.886c0,0.097,0.002,0.22,0.007,0.369c0.004,0.149,0.011,0.325,0.02,0.527s0.016,0.378,0.02,0.527
		c0.005,0.149,0.007,0.272,0.007,0.369c0,0.149-0.295,0.369-0.883,0.659c-0.59,0.281-0.985,0.422-1.188,0.422
		c-0.035,0-0.074-0.004-0.118-0.013c-0.879-0.633-2.048-0.989-3.507-1.068c0.281,1.072,0.94,2.333,1.978,3.784
		c1.6,2.276,2.733,3.643,3.401,4.1c0.088,0.053,0.132,0.088,0.132,0.105c0,0.123-0.299,0.33-0.896,0.62
		c-0.58,0.281-0.984,0.443-1.213,0.487l-0.118-0.053c-1.055-1.055-1.974-2.082-2.756-3.084s-1.438-1.991-1.965-2.967
		c-0.018,1.02-0.07,2.109-0.158,3.27c-0.123,0.229-0.452,0.453-0.988,0.672c-0.264,0.115-0.664,0.242-1.199,0.383
		c0-0.176,0.011-0.49,0.032-0.942C0.464,16.6,0.496,16,0.54,15.253c0.07-1.195,0.126-2.272,0.165-3.23
		c0.04-0.958,0.06-1.811,0.06-2.558c0-0.782-0.079-2.619-0.237-5.511c-0.009-0.229-0.031-0.51-0.065-0.844
		C0.426,2.777,0.378,2.382,0.316,1.925c-0.062-0.308-0.13-0.534-0.204-0.679C0.037,1.101,0,1.046,0,1.081
		c0-0.158,0.308-0.374,0.923-0.646C1.538,0.145,1.951,0,2.162,0c0.185,0,0.352,0.563,0.501,1.688
		c0.686-0.246,1.788-0.51,3.309-0.791C7.483,0.624,8.613,0.352,9.36,0.079C9.545,0.026,9.65,0,9.677,0
		c0.035,0,0.088,0.075,0.158,0.224C9.976,0.672,10.046,1.472,10.046,2.624z M7.857,4.179c0-1.063-0.097-2.074-0.29-3.032
		C7.022,1.27,6.348,1.426,5.544,1.615C4.739,1.804,3.792,2.021,2.702,2.268C2.799,4.201,2.867,5.786,2.907,7.02
		c0.039,1.235,0.055,2.134,0.046,2.696c1.09-0.105,1.92-0.158,2.491-0.158c0.766,0,1.481,0.062,2.149,0.185
		c0-0.299,0.011-0.677,0.033-1.134c0.021-0.457,0.055-1.002,0.099-1.635C7.77,6.359,7.803,5.821,7.824,5.359
		C7.847,4.898,7.857,4.504,7.857,4.179z"/>
	<path class="st0" d="M21.423,15.543c0,0.677-0.088,1.156-0.264,1.437c-0.097,0.158-0.427,0.365-0.988,0.62
		c-0.537,0.246-0.928,0.378-1.174,0.396c-0.563-0.694-1.463-1.041-2.703-1.041c-0.193,0-0.445,0.02-0.758,0.059
		c-0.312,0.04-0.688,0.104-1.127,0.191c-0.729,0.492-1.385,0.756-1.965,0.791c0.018-0.334,0.04-0.745,0.066-1.232
		c0.026-0.488,0.057-1.062,0.092-1.721c0.07-1.31,0.126-2.428,0.165-3.355c0.04-0.927,0.06-1.681,0.06-2.261
		c0-0.404-0.02-1.059-0.06-1.964c-0.039-0.905-0.095-2.074-0.165-3.507c0-0.229-0.02-0.51-0.059-0.844
		c-0.04-0.334-0.095-0.729-0.165-1.187c-0.105-0.264-0.211-0.541-0.316-0.831c0-0.158,0.308-0.374,0.923-0.646
		C13.539,0.176,13.948,0.026,14.212,0c0.219,0.141,0.369,0.628,0.447,1.463c1.793-0.659,3.547-1.121,5.261-1.384
		C20.324,0.026,20.593,0,20.724,0c0.044,0,0.105,0,0.186,0c0.087,0,0.192,0.004,0.316,0.013c-0.01,0.026-0.084,0.097-0.225,0.211
		c-0.501,0.422-0.796,0.809-0.883,1.16c-0.019,0.211-0.031,0.424-0.04,0.64s-0.022,0.433-0.04,0.652
		c-0.009,0.316-0.109,0.624-0.303,0.923c-0.141,0.202-0.475,0.417-1.002,0.646c-0.237,0.097-0.629,0.233-1.174,0.409
		c0.009-1.608,0.488-2.826,1.438-3.652c-0.475,0.097-1.063,0.227-1.767,0.389s-1.534,0.358-2.491,0.586
		c0.184,2.531,0.276,4.654,0.276,6.368c0.088,0,0.191,0.007,0.31,0.02c0.119,0.014,0.262,0.029,0.429,0.046s0.314,0.033,0.441,0.046
		c0.128,0.013,0.235,0.02,0.323,0.02c0.202,0,0.45-0.009,0.745-0.026c0.294-0.018,0.644-0.044,1.048-0.079
		c0.8-0.079,1.401-0.119,1.807-0.119c-0.105,0.158-0.33,0.338-0.673,0.541c-0.492,0.281-0.972,0.461-1.437,0.541
		c-0.335,0.053-0.75,0.099-1.246,0.138c-0.497,0.04-1.079,0.077-1.747,0.112c-0.018,1.081-0.053,2.182-0.105,3.303
		c-0.053,1.12-0.114,2.27-0.185,3.447c1.67-0.316,2.892-0.475,3.665-0.475c0.123,0,0.255,0.007,0.396,0.02
		c0.141,0.014,0.285,0.029,0.436,0.046c-0.027-0.201-0.133-0.72-0.316-1.555c-0.071-0.325-0.126-0.618-0.165-0.877
		c-0.04-0.259-0.06-0.49-0.06-0.692c0-0.149,0.308-0.36,0.923-0.633c0.308-0.141,0.564-0.244,0.771-0.31
		c0.206-0.066,0.362-0.104,0.468-0.112c0.009,0.044,0.028,0.156,0.06,0.336c0.03,0.181,0.072,0.433,0.125,0.758
		C21.291,14.554,21.423,15.456,21.423,15.543z"/>
	<path class="st0" d="M33.961,0.066c0,0.193-0.053,0.448-0.158,0.765c-0.088,0.229-0.151,0.404-0.191,0.527
		c-0.039,0.123-0.063,0.193-0.072,0.211c-0.123,0.483-0.274,1.085-0.455,1.806c-0.18,0.721-0.389,1.569-0.626,2.544
		c-0.22,0.773-0.483,1.729-0.791,2.867c-0.308,1.139-0.659,2.477-1.055,4.015c-0.044,0.439-0.134,0.967-0.271,1.582
		c-0.136,0.615-0.318,1.323-0.547,2.122c-0.413,0.871-1.213,1.367-2.399,1.49c-0.018-0.141-0.132-0.786-0.343-1.938
		s-0.51-2.809-0.896-4.971c-0.255-1.397-0.51-2.667-0.765-3.81s-0.51-2.167-0.765-3.072c-0.141-0.475-0.271-0.885-0.389-1.232
		c-0.119-0.347-0.235-0.644-0.35-0.89c-0.29-0.642-0.436-0.984-0.436-1.028c0-0.167,0.313-0.382,0.937-0.646
		C24.996,0.136,25.418,0,25.655,0l0.079,0.105c0.149,0.378,0.306,0.789,0.468,1.233c0.163,0.444,0.327,0.925,0.495,1.443
		c0.614,1.916,1.305,5.15,2.069,9.703l2.097-7.831c0.069-0.272,0.148-0.608,0.236-1.009c0.088-0.399,0.193-0.872,0.316-1.417
		c0.035-0.308,0.128-0.708,0.277-1.2c0.114-0.185,0.436-0.4,0.963-0.646C33.209,0.127,33.609,0,33.855,0
		C33.926,0,33.961,0.022,33.961,0.066z"/>
	<path class="st0" d="M45.339,15.543c0,0.677-0.088,1.156-0.264,1.437c-0.097,0.158-0.427,0.365-0.988,0.62
		c-0.537,0.246-0.928,0.378-1.174,0.396c-0.563-0.694-1.463-1.041-2.703-1.041c-0.193,0-0.445,0.02-0.758,0.059
		c-0.312,0.04-0.688,0.104-1.127,0.191c-0.729,0.492-1.385,0.756-1.965,0.791c0.018-0.334,0.04-0.745,0.066-1.232
		c0.026-0.488,0.057-1.062,0.092-1.721c0.07-1.31,0.126-2.428,0.165-3.355c0.04-0.927,0.06-1.681,0.06-2.261
		c0-0.404-0.02-1.059-0.06-1.964c-0.039-0.905-0.095-2.074-0.165-3.507c0-0.229-0.02-0.51-0.059-0.844
		c-0.04-0.334-0.095-0.729-0.165-1.187c-0.105-0.264-0.211-0.541-0.316-0.831c0-0.158,0.308-0.374,0.923-0.646
		C37.455,0.176,37.864,0.026,38.128,0c0.219,0.141,0.369,0.628,0.447,1.463c1.793-0.659,3.547-1.121,5.261-1.384
		C44.24,0.026,44.509,0,44.64,0c0.044,0,0.105,0,0.186,0c0.087,0,0.192,0.004,0.316,0.013c-0.01,0.026-0.084,0.097-0.225,0.211
		c-0.501,0.422-0.796,0.809-0.883,1.16c-0.019,0.211-0.031,0.424-0.04,0.64s-0.022,0.433-0.04,0.652
		c-0.009,0.316-0.109,0.624-0.303,0.923c-0.141,0.202-0.475,0.417-1.002,0.646c-0.237,0.097-0.629,0.233-1.174,0.409
		c0.009-1.608,0.488-2.826,1.438-3.652c-0.475,0.097-1.063,0.227-1.767,0.389s-1.534,0.358-2.491,0.586
		c0.184,2.531,0.276,4.654,0.276,6.368c0.088,0,0.191,0.007,0.31,0.02c0.119,0.014,0.262,0.029,0.429,0.046s0.314,0.033,0.441,0.046
		c0.128,0.013,0.235,0.02,0.323,0.02c0.202,0,0.45-0.009,0.745-0.026c0.294-0.018,0.644-0.044,1.048-0.079
		c0.8-0.079,1.401-0.119,1.807-0.119c-0.105,0.158-0.33,0.338-0.673,0.541c-0.492,0.281-0.972,0.461-1.437,0.541
		c-0.335,0.053-0.75,0.099-1.246,0.138c-0.497,0.04-1.079,0.077-1.747,0.112c-0.018,1.081-0.053,2.182-0.105,3.303
		c-0.053,1.12-0.114,2.27-0.185,3.447c1.67-0.316,2.892-0.475,3.665-0.475c0.123,0,0.255,0.007,0.396,0.02
		c0.141,0.014,0.285,0.029,0.436,0.046c-0.027-0.201-0.133-0.72-0.316-1.555c-0.071-0.325-0.126-0.618-0.165-0.877
		c-0.04-0.259-0.06-0.49-0.06-0.692c0-0.149,0.308-0.36,0.923-0.633c0.308-0.141,0.564-0.244,0.771-0.31
		c0.206-0.066,0.362-0.104,0.468-0.112c0.009,0.044,0.028,0.156,0.06,0.336c0.03,0.181,0.072,0.433,0.125,0.758
		C45.207,14.554,45.339,15.456,45.339,15.543z"/>
	<path class="st0" d="M58.034,16.941c0,0.149-0.313,0.365-0.936,0.646c-0.607,0.272-1.021,0.408-1.24,0.408
		c-0.062,0-0.092-0.021-0.092-0.066c0-0.034,0.011-0.074,0.033-0.118c0.021-0.044,0.033-0.079,0.033-0.105
		c0,0.035-0.093-0.589-0.277-1.872c-0.079-0.563-0.145-1.252-0.197-2.07c-0.053-0.817-0.098-1.775-0.133-2.874
		c-0.975,0.413-2.451,0.98-4.43,1.701c-0.07,0.721-0.146,1.448-0.23,2.182c-0.083,0.734-0.174,1.479-0.27,2.235
		c-0.177,0.202-0.523,0.413-1.042,0.633c-0.51,0.22-0.914,0.338-1.213,0.355c0.097-0.36,0.272-1.688,0.527-3.981
		c0.149-1.6,0.264-3.052,0.343-4.357c0.079-1.305,0.119-2.476,0.119-3.513c0-0.976-0.027-1.846-0.08-2.61
		c-0.07-0.773-0.125-1.365-0.164-1.773c-0.04-0.409-0.06-0.644-0.06-0.706c0-0.158,0.312-0.378,0.937-0.659
		C50.198,0.176,50.62,0.044,50.929,0c0.069,0.571,0.125,1.02,0.164,1.345c0.04,0.325,0.06,0.536,0.06,0.633
		c0.352-0.044,0.874-0.136,1.569-0.277c0.201-0.044,0.498-0.143,0.89-0.297c0.391-0.153,0.89-0.367,1.496-0.639
		c0.536-0.229,0.995-0.409,1.378-0.541C56.867,0.092,57.173,0.018,57.401,0c0.079,0.149,0.119,0.281,0.119,0.396
		c0-0.123-0.007,0.002-0.021,0.375c-0.013,0.374-0.028,1-0.046,1.879s-0.031,1.714-0.039,2.505c-0.01,0.791-0.014,1.547-0.014,2.268
		c0,3.674,0.176,6.548,0.527,8.622c0.035,0.229,0.062,0.418,0.079,0.566C58.025,16.761,58.034,16.871,58.034,16.941z M55.331,1.147
		c-0.447,0.185-1.017,0.404-1.707,0.659c-0.689,0.255-1.501,0.545-2.432,0.87c0.017,0.308,0.032,0.659,0.046,1.055
		c0.013,0.396,0.02,0.844,0.02,1.345c0,2.101-0.118,4.315-0.356,6.645c0.088,0.018,0.165,0.033,0.231,0.046
		c0.065,0.014,0.125,0.02,0.178,0.02c0.554,0,1.858-0.435,3.915-1.305c-0.009-0.422-0.015-0.798-0.02-1.127
		C55.202,9.024,55.2,8.732,55.2,8.477c0-0.352,0.002-0.793,0.006-1.325c0.005-0.531,0.011-1.153,0.02-1.865s0.016-1.333,0.021-1.865
		c0.004-0.532,0.007-0.978,0.007-1.338C55.253,1.696,55.278,1.384,55.331,1.147z"/>
	<path class="st0" d="M70.849,14.687c0,1.318-0.058,2.065-0.172,2.24c-0.114,0.186-0.427,0.4-0.936,0.646
		c-0.527,0.246-0.933,0.387-1.213,0.422c-0.071-0.088-0.156-0.195-0.258-0.323c-0.101-0.127-0.227-0.274-0.375-0.441
		c-0.896-0.976-2.383-1.63-4.457-1.964v0.791c0,0.431-0.044,0.733-0.131,0.909c-0.08,0.176-0.388,0.387-0.924,0.633
		c-0.545,0.237-0.967,0.369-1.266,0.396c0.114-2.206,0.2-4.019,0.258-5.438c0.057-1.419,0.086-2.458,0.086-3.118
		c0-0.563-0.066-2.369-0.198-5.418c0-0.229-0.02-0.516-0.06-0.863c-0.039-0.347-0.095-0.758-0.164-1.233
		c-0.203-0.633-0.304-0.91-0.304-0.831c0-0.158,0.29-0.369,0.87-0.633C62.195,0.189,62.612,0.035,62.858,0
		c0.308,0.211,0.51,1.252,0.607,3.125c0.069,1.503,0.125,2.681,0.164,3.533c0.04,0.853,0.06,1.393,0.06,1.622
		c0,1.503-0.065,3.406-0.198,5.708c2.013,0,3.723,0.36,5.129,1.081v-1.846c0-0.149,0.299-0.365,0.896-0.646
		c0.589-0.29,0.993-0.435,1.213-0.435c0.009,0,0.039,0.009,0.092,0.026c0.009,0.536,0.016,1.013,0.021,1.431
		C70.846,14.016,70.849,14.379,70.849,14.687z"/>
	<path class="st0" d="M75.542,6.948c0,0.422-0.012,1.068-0.033,1.938c-0.022,0.87-0.056,1.978-0.1,3.322
		c-0.105,2.979-0.193,4.527-0.264,4.641c-0.176,0.229-0.505,0.466-0.988,0.711c-0.492,0.256-0.905,0.4-1.239,0.436
		c-0.035-0.035-0.053-0.074-0.053-0.119c0,0.053,0.007,0.053,0.02,0c0.014-0.053,0.037-0.153,0.073-0.303
		c0.008-0.07,0.028-0.362,0.059-0.877c0.031-0.514,0.072-1.25,0.125-2.208c0.07-1.362,0.126-2.58,0.165-3.652
		c0.04-1.072,0.06-2.017,0.06-2.834c0-1.31-0.066-2.83-0.197-4.562c-0.01-0.167-0.024-0.378-0.047-0.633
		c-0.021-0.255-0.055-0.549-0.099-0.883c-0.035-0.255-0.062-0.457-0.079-0.606s-0.026-0.246-0.026-0.29
		c0-0.167,0.312-0.378,0.937-0.633C74.382,0.185,74.812,0.053,75.146,0C75.409,2.294,75.542,4.61,75.542,6.948z"/>
	<path class="st0" d="M88.198,16.917c0,0.148-0.309,0.359-0.924,0.632c-0.483,0.219-0.883,0.368-1.199,0.447
		c-0.105-0.149-0.181-0.457-0.225-0.923c-0.167-1.907-0.289-3.582-0.369-5.023c-0.078-1.441-0.118-2.663-0.118-3.665
		c0-0.404,0.007-0.907,0.02-1.509c0.014-0.602,0.028-1.303,0.046-2.103c0.018-0.809,0.033-1.512,0.047-2.109
		c0.013-0.598,0.02-1.099,0.02-1.503c-0.448,0.176-1.018,0.389-1.707,0.639c-0.69,0.251-1.501,0.534-2.433,0.851
		c0.026,0.633,0.04,1.437,0.04,2.413c0,0.686-0.027,1.472-0.08,2.36s-0.136,1.894-0.25,3.019c-0.141,1.389-0.25,2.529-0.33,3.421
		c-0.078,0.892-0.136,1.54-0.171,1.944c0,0.29-0.044,0.668-0.132,1.134c-0.088,0.193-0.408,0.408-0.963,0.646
		c-0.246,0.114-0.47,0.206-0.672,0.276s-0.387,0.114-0.554,0.132c0-0.141,0.146-1.404,0.435-3.791
		c0.344-2.853,0.515-5.7,0.515-8.544c0-0.491-0.007-0.924-0.02-1.297c-0.014-0.373-0.038-0.695-0.073-0.967
		c-0.07-0.825-0.125-1.431-0.164-1.817c-0.04-0.386-0.06-0.562-0.06-0.526c0-0.167,0.316-0.382,0.949-0.645
		C80.354,0.206,80.771,0.07,81.079,0c0.061,0.298,0.107,0.612,0.138,0.941c0.031,0.329,0.046,0.682,0.046,1.06
		c0.176-0.035,0.398-0.075,0.666-0.118c0.269-0.044,0.578-0.101,0.93-0.171c0.343-0.079,1.155-0.382,2.439-0.909
		c1.142-0.456,1.898-0.693,2.268-0.71l0.105,0.066l-0.105,7.188c0,3.581,0.171,6.464,0.514,8.649
		C88.158,16.459,88.198,16.767,88.198,16.917z"/>
	<path class="st0" d="M100.854,11.443c-0.123,0.176-0.308,0.325-0.554,0.448c0.044,0.51,0.077,0.976,0.099,1.397
		c0.022,0.422,0.033,0.8,0.033,1.134c0,1.248-0.149,2.065-0.448,2.451c-0.132,0.203-0.439,0.427-0.923,0.673
		c-0.246,0.123-0.464,0.224-0.652,0.304c-0.189,0.078-0.354,0.127-0.495,0.145c-0.053-0.018-0.202-0.158-0.447-0.422
		c-0.484-0.483-1.266-0.725-2.348-0.725c-0.422,0-1.05,0.083-1.885,0.25c-0.791,0.527-1.446,0.826-1.965,0.896
		c-0.009-0.044-0.013-0.083-0.013-0.119c0-0.034,0-0.061,0-0.078c0,0.062,0.011,0.023,0.033-0.112
		c0.021-0.137,0.055-0.371,0.099-0.706c0.009-0.228,0.018-0.509,0.026-0.844c0.009-0.333,0.021-0.725,0.04-1.173
		c0.105-2.672,0.158-4.513,0.158-5.524c0-0.36-0.007-0.769-0.021-1.226c-0.013-0.457-0.028-0.967-0.046-1.529
		c-0.044-0.765-0.075-1.375-0.092-1.833c-0.019-0.457-0.031-0.769-0.04-0.936c0.009-0.457-0.044-1.134-0.158-2.03
		c-0.035-0.088-0.081-0.2-0.139-0.336c-0.057-0.136-0.134-0.301-0.23-0.495c0.079-0.193,0.387-0.409,0.923-0.646
		C92.338,0.163,92.76,0.026,93.076,0c0.229,0.308,0.369,0.8,0.422,1.477C96.188,0.492,98.288,0,99.8,0
		c0.079,0,0.153,0.026,0.224,0.079c-0.018,0.018-0.044,0.044-0.078,0.079C99.909,0.193,99.861,0.237,99.8,0.29
		c-0.615,0.527-0.923,1.187-0.923,1.978v0.316c0,0.782-0.439,1.358-1.318,1.727c-0.483,0.202-0.893,0.338-1.227,0.409
		c0.035-1.617,0.523-2.83,1.464-3.639c-0.475,0.088-1.062,0.209-1.76,0.363c-0.699,0.154-1.522,0.34-2.472,0.56
		c0.184,2.294,0.276,4.377,0.276,6.249c0,2.689-0.093,5.344-0.276,7.963c1.695-0.316,2.904-0.475,3.625-0.475
		c0.176,0,0.352,0.006,0.527,0.02c0.176,0.013,0.347,0.037,0.514,0.072v-0.475c0-0.343-0.039-0.853-0.118-1.529
		c-0.035-0.343-0.062-0.642-0.079-0.896s-0.026-0.466-0.026-0.633c-0.255-0.088-0.598-0.198-1.028-0.33s-0.958-0.29-1.582-0.475
		c0.132-0.167,0.452-0.382,0.963-0.646c0.509-0.272,0.878-0.409,1.107-0.409C97.633,10.441,98.763,10.775,100.854,11.443z"/>
	<path class="st0" d="M124.849,0.013c-0.025,0.044-0.101,0.119-0.224,0.224c-0.413,0.378-0.682,0.708-0.804,0.989
		c-0.105,0.281-0.158,0.677-0.158,1.187c0,0.527-0.093,0.914-0.277,1.16c-0.176,0.264-0.506,0.492-0.988,0.686
		c-0.475,0.202-0.889,0.334-1.24,0.396c0.044-1.617,0.532-2.826,1.464-3.625c-0.475,0.097-1.063,0.22-1.767,0.369
		s-1.529,0.334-2.479,0.554c0.097,1.45,0.169,2.727,0.218,3.83c0.048,1.104,0.072,2.046,0.072,2.828
		c1.538-0.325,3.428-0.488,5.669-0.488l0.026,0.04c-0.097,0.158-0.418,0.378-0.962,0.659c-0.527,0.264-0.915,0.396-1.16,0.396
		c-0.475,0-1.009,0.02-1.603,0.06c-0.593,0.039-1.259,0.094-1.997,0.165c-0.097,4.826-0.22,7.348-0.369,7.568
		c-0.158,0.22-0.483,0.443-0.976,0.672c-0.492,0.211-0.914,0.316-1.266,0.316c0.211-0.932,0.316-1.907,0.316-2.927
		c0-0.624,0.013-1.578,0.04-2.861c0.017-0.642,0.03-1.2,0.039-1.674s0.014-0.866,0.014-1.173c0-0.606-0.066-2.408-0.198-5.405
		c0-0.229-0.02-0.514-0.06-0.857c-0.039-0.343-0.095-0.738-0.164-1.187c-0.203-0.65-0.304-0.936-0.304-0.857
		c0-0.158,0.316-0.378,0.949-0.659c0.554-0.237,0.967-0.369,1.239-0.396c0.246,0.325,0.387,0.804,0.422,1.437
		c2.03-0.747,4.056-1.226,6.078-1.437C124.507,0.026,124.655,0.031,124.849,0.013z"/>
	<path class="st0" d="M136.608,16.941c0,0.149-0.313,0.365-0.936,0.646c-0.607,0.272-1.021,0.408-1.24,0.408
		c-0.062,0-0.092-0.021-0.092-0.066c0-0.034,0.011-0.074,0.033-0.118c0.021-0.044,0.033-0.079,0.033-0.105
		c0,0.035-0.093-0.589-0.277-1.872c-0.079-0.563-0.145-1.252-0.197-2.07c-0.053-0.817-0.098-1.775-0.133-2.874
		c-0.975,0.413-2.451,0.98-4.43,1.701c-0.07,0.721-0.146,1.448-0.23,2.182c-0.083,0.734-0.174,1.479-0.27,2.235
		c-0.177,0.202-0.523,0.413-1.042,0.633c-0.51,0.22-0.914,0.338-1.213,0.355c0.097-0.36,0.272-1.688,0.527-3.981
		c0.149-1.6,0.264-3.052,0.343-4.357c0.079-1.305,0.119-2.476,0.119-3.513c0-0.976-0.027-1.846-0.08-2.61
		c-0.07-0.773-0.125-1.365-0.164-1.773c-0.04-0.409-0.06-0.644-0.06-0.706c0-0.158,0.312-0.378,0.937-0.659
		c0.535-0.22,0.957-0.352,1.266-0.396c0.069,0.571,0.125,1.02,0.164,1.345c0.04,0.325,0.06,0.536,0.06,0.633
		c0.352-0.044,0.874-0.136,1.569-0.277c0.201-0.044,0.498-0.143,0.89-0.297c0.391-0.153,0.89-0.367,1.496-0.639
		c0.536-0.229,0.995-0.409,1.378-0.541c0.382-0.132,0.688-0.207,0.916-0.224c0.079,0.149,0.119,0.281,0.119,0.396
		c0-0.123-0.007,0.002-0.021,0.375c-0.013,0.374-0.028,1-0.046,1.879s-0.031,1.714-0.039,2.505c-0.01,0.791-0.014,1.547-0.014,2.268
		c0,3.674,0.176,6.548,0.527,8.622c0.035,0.229,0.062,0.418,0.079,0.566C136.6,16.761,136.608,16.871,136.608,16.941z
		 M133.905,1.147c-0.447,0.185-1.017,0.404-1.707,0.659c-0.689,0.255-1.501,0.545-2.432,0.87c0.017,0.308,0.032,0.659,0.046,1.055
		c0.013,0.396,0.02,0.844,0.02,1.345c0,2.101-0.118,4.315-0.356,6.645c0.088,0.018,0.165,0.033,0.231,0.046
		c0.065,0.014,0.125,0.02,0.178,0.02c0.554,0,1.858-0.435,3.915-1.305c-0.009-0.422-0.015-0.798-0.02-1.127
		c-0.004-0.33-0.006-0.622-0.006-0.877c0-0.352,0.002-0.793,0.006-1.325c0.005-0.531,0.011-1.153,0.02-1.865
		s0.016-1.333,0.021-1.865c0.004-0.532,0.007-0.978,0.007-1.338C133.827,1.696,133.853,1.384,133.905,1.147z"/>
	<path class="st0" d="M149.054,0.29c-0.124,0.167-0.348,0.33-0.673,0.488c-0.571,0.334-1.23,0.545-1.978,0.633
		c-0.369,0.044-0.734,0.082-1.094,0.112c-0.361,0.031-0.726,0.063-1.095,0.099c0.062,0.606,0.107,1.2,0.139,1.78
		c0.03,0.58,0.046,1.147,0.046,1.701c0,1.477-0.105,3.261-0.316,5.353c-0.088,0.896-0.176,1.789-0.264,2.676
		c-0.088,0.888-0.181,1.78-0.277,2.676c0,0.272-0.053,0.65-0.158,1.134c-0.105,0.185-0.417,0.4-0.936,0.646
		s-0.928,0.382-1.227,0.408c0-0.026,0.146-1.279,0.436-3.758c0.343-2.935,0.514-5.629,0.514-8.081c0-1.582-0.065-3.015-0.197-4.298
		c-1.89,0.185-3.309,0.277-4.258,0.277c-0.186,0-0.316-0.018-0.396-0.053c0.071-0.22,0.427-0.453,1.068-0.699
		c0.527-0.193,1.002-0.325,1.424-0.396v0.013c0.229-0.009,0.517-0.018,0.863-0.026c0.348-0.009,0.758-0.022,1.232-0.04
		c0.202-0.149,0.536-0.334,1.002-0.554C143.464,0.127,143.823,0,143.991,0c0.096,0,0.145,0.255,0.145,0.765
		c0.404-0.044,0.905-0.094,1.503-0.152c0.598-0.057,1.296-0.129,2.097-0.217c0.298-0.035,0.733-0.088,1.305-0.158L149.054,0.29z"/>
	<path class="st0" d="M159.087,15.543c0,0.677-0.088,1.156-0.264,1.437c-0.097,0.158-0.427,0.365-0.988,0.62
		c-0.537,0.246-0.928,0.378-1.174,0.396c-0.563-0.694-1.463-1.041-2.703-1.041c-0.193,0-0.445,0.02-0.758,0.059
		c-0.312,0.04-0.688,0.104-1.127,0.191c-0.729,0.492-1.385,0.756-1.965,0.791c0.018-0.334,0.04-0.745,0.066-1.232
		c0.026-0.488,0.057-1.062,0.092-1.721c0.07-1.31,0.126-2.428,0.165-3.355c0.04-0.927,0.06-1.681,0.06-2.261
		c0-0.404-0.02-1.059-0.06-1.964c-0.039-0.905-0.095-2.074-0.165-3.507c0-0.229-0.02-0.51-0.059-0.844
		c-0.04-0.334-0.095-0.729-0.165-1.187c-0.105-0.264-0.211-0.541-0.316-0.831c0-0.158,0.308-0.374,0.923-0.646
		c0.554-0.272,0.963-0.422,1.227-0.448c0.219,0.141,0.369,0.628,0.447,1.463c1.793-0.659,3.547-1.121,5.261-1.384
		C157.988,0.026,158.257,0,158.388,0c0.044,0,0.105,0,0.186,0c0.087,0,0.192,0.004,0.316,0.013c-0.01,0.026-0.084,0.097-0.225,0.211
		c-0.501,0.422-0.796,0.809-0.883,1.16c-0.019,0.211-0.031,0.424-0.04,0.64s-0.022,0.433-0.04,0.652
		c-0.009,0.316-0.109,0.624-0.303,0.923c-0.141,0.202-0.475,0.417-1.002,0.646c-0.237,0.097-0.629,0.233-1.174,0.409
		c0.009-1.608,0.488-2.826,1.438-3.652c-0.475,0.097-1.063,0.227-1.767,0.389s-1.534,0.358-2.491,0.586
		c0.184,2.531,0.276,4.654,0.276,6.368c0.088,0,0.191,0.007,0.31,0.02c0.119,0.014,0.262,0.029,0.429,0.046s0.314,0.033,0.441,0.046
		c0.128,0.013,0.235,0.02,0.323,0.02c0.202,0,0.45-0.009,0.745-0.026c0.294-0.018,0.644-0.044,1.048-0.079
		c0.8-0.079,1.401-0.119,1.807-0.119c-0.105,0.158-0.33,0.338-0.673,0.541c-0.492,0.281-0.972,0.461-1.437,0.541
		c-0.335,0.053-0.75,0.099-1.246,0.138c-0.497,0.04-1.079,0.077-1.747,0.112c-0.018,1.081-0.053,2.182-0.105,3.303
		c-0.053,1.12-0.114,2.27-0.185,3.447c1.67-0.316,2.892-0.475,3.665-0.475c0.123,0,0.255,0.007,0.396,0.02
		c0.141,0.014,0.285,0.029,0.436,0.046c-0.027-0.201-0.133-0.72-0.316-1.555c-0.071-0.325-0.126-0.618-0.165-0.877
		c-0.04-0.259-0.06-0.49-0.06-0.692c0-0.149,0.308-0.36,0.923-0.633c0.308-0.141,0.564-0.244,0.771-0.31
		c0.206-0.066,0.362-0.104,0.468-0.112c0.009,0.044,0.028,0.156,0.06,0.336c0.03,0.181,0.072,0.433,0.125,0.758
		C158.955,14.554,159.087,15.456,159.087,15.543z"/>
</g>
</svg>